<?xml version="1.0" encoding="utf-8"?>
<!-- Generator: Adobe Illustrator 23.0.2, SVG Export Plug-In . SVG Version: 6.00 Build 0)  -->
<svg version="1.1" id="Layer_1" xmlns="http://www.w3.org/2000/svg" xmlns:xlink="http://www.w3.org/1999/xlink" x="0px" y="0px"
	 viewBox="0 0 48 48" style="enable-background:new 0 0 48 48;" xml:space="preserve">
<style type="text/css">
	.st0{fill:#9929A5;}
	.st1{clip-path:url(#SVGID_2_);fill:none;stroke:#000000;stroke-width:4;stroke-opacity:7.800000e-02;}
	.st2{fill:#F9F7F7;}
	.st3{fill:#020202;}
</style>
<path class="st0" d="M9.7,47.9c-4.2-0.7-7.8-3.8-9.1-7.8C0,38.2,0,39,0,24.1C0,11.4,0,10.7,0.2,9.8c0.5-2.5,1.5-4.4,3.3-6.2
	C5.2,1.9,6.8,1,9.3,0.4c0.6-0.1,1.8-0.2,14-0.2c9.3,0,13.7,0,14.3,0.1c5,0.6,8.9,4.2,10.1,9.2l0.2,0.9l0,13.1
	c0,13.2,0,14.3-0.3,15.6c-0.6,2.7-2.2,5-4.3,6.7c-1.3,1-2.6,1.6-4.5,2.1L38.1,48l-13.9,0C12.9,48,10.3,48,9.7,47.9z"/>
<g>
	<defs>
		<path id="SVGID_1_" d="M9.7,47.9c-4.2-0.7-7.8-3.8-9.1-7.8C0,38.2,0,39,0,24.1C0,11.4,0,10.7,0.2,9.8c0.5-2.5,1.5-4.4,3.3-6.2
			C5.2,1.9,6.8,1,9.3,0.4c0.6-0.1,1.8-0.2,14-0.2c9.3,0,13.7,0,14.3,0.1c5,0.6,8.9,4.2,10.1,9.2l0.2,0.9l0,13.1
			c0,13.2,0,14.3-0.3,15.6c-0.6,2.7-2.2,5-4.3,6.7c-1.3,1-2.6,1.6-4.5,2.1L38.1,48l-13.9,0C12.9,48,10.3,48,9.7,47.9z"/>
	</defs>
	<clipPath id="SVGID_2_">
		<use xlink:href="#SVGID_1_"  style="overflow:visible;"/>
	</clipPath>
	<path class="st1" d="M9.7,47.9c-4.2-0.7-7.8-3.8-9.1-7.8C0,38.2,0,39,0,24.1C0,11.4,0,10.7,0.2,9.8c0.5-2.5,1.5-4.4,3.3-6.2
		C5.2,1.9,6.8,1,9.3,0.4c0.6-0.1,1.8-0.2,14-0.2c9.3,0,13.7,0,14.3,0.1c5,0.6,8.9,4.2,10.1,9.2l0.2,0.9l0,13.1
		c0,13.2,0,14.3-0.3,15.6c-0.6,2.7-2.2,5-4.3,6.7c-1.3,1-2.6,1.6-4.5,2.1L38.1,48l-13.9,0C12.9,48,10.3,48,9.7,47.9z"/>
</g>
<g>
	<g>
		<circle class="st2" cx="24" cy="24" r="14.6"/>
		<path class="st3" d="M33.3,30.1l-7.6-15.8c-0.3-0.5-0.8-0.9-1.3-0.9c-0.6,0-1.1,0.3-1.3,0.9l-7.7,16.2c-0.4,0.8-0.1,1.7,0.7,2.1
			c0.2,0.1,0.5,0.2,0.7,0.2c0.6,0,1.1-0.3,1.3-0.9l2.7-5.6h7.5l2.5,5.2c0.4,0.8,1.3,1.1,2,0.7C33.4,31.9,33.7,30.9,33.3,30.1
			L33.3,30.1z M22.1,23.2l2.2-4.6l2.2,4.6H22.1z"/>
		<path class="st2" d="M19.2,41.4L19.2,41.4c0,0,0-0.1,0-0.1c0,0,0,0,0,0c0,0,0-0.1,0-0.1c0,0,0,0,0,0c0,0,0,0,0-0.1c0,0,0,0,0,0
			c0,0,0-0.1-0.1-0.1c0,0,0-0.1-0.1-0.1c0,0,0,0,0,0c0,0,0,0-0.1-0.1c0,0,0,0,0,0c0,0,0,0-0.1,0c0,0,0,0,0,0c0,0-0.1,0-0.1,0l-4.8-2
			c-0.5-0.2-1,0-1.2,0.5c-0.2,0.5,0,1,0.5,1.2l3.2,1.3c-1.8,1-3.9,1-5.7,0.1h0c-2.3-1.1-3.8-3.5-3.7-6.2c0-0.5-0.4-1-0.9-1
			c-0.5,0-0.9,0.4-1,0.9c-0.1,3.4,1.8,6.5,4.8,8c1.1,0.5,2.3,0.8,3.5,0.8c1,0,2-0.2,3-0.6l-0.8,2.1c-0.2,0.5,0,1,0.5,1.2
			c0.1,0,0.2,0.1,0.4,0.1c0.4,0,0.7-0.2,0.9-0.6l1.9-4.8c0,0,0,0,0,0c0,0,0,0,0,0c0,0,0-0.1,0-0.1c0,0,0,0,0,0c0,0,0-0.1,0-0.1
			c0,0,0-0.1,0-0.1c0,0,0,0,0,0C19.2,41.5,19.2,41.5,19.2,41.4C19.2,41.5,19.2,41.5,19.2,41.4z"/>
		<path class="st2" d="M28.8,6.8L28.8,6.8c0,0,0,0.1,0,0.1c0,0,0,0,0,0c0,0,0,0.1,0,0.1c0,0,0,0,0,0c0,0,0,0,0,0.1c0,0,0,0,0,0
			c0,0,0,0.1,0.1,0.1c0,0,0,0.1,0.1,0.1c0,0,0,0,0,0c0,0,0,0,0.1,0.1c0,0,0,0,0,0c0,0,0,0,0.1,0c0,0,0,0,0,0c0,0,0.1,0,0.1,0l4.8,2
			c0.5,0.2,1,0,1.2-0.5c0.2-0.5,0-1-0.5-1.2l-3.2-1.3c1.8-1,3.9-1,5.7-0.1h0c2.3,1.1,3.8,3.5,3.7,6.2c0,0.5,0.4,1,0.9,1c0,0,0,0,0,0
			c0.5,0,0.9-0.4,0.9-0.9c0.1-3.4-1.8-6.6-4.8-8l0,0c-2.1-1-4.4-1.1-6.5-0.2l0.8-2.1c0.2-0.5,0-1-0.5-1.2c-0.5-0.2-1,0-1.2,0.5
			l-1.9,4.8c0,0,0,0,0,0c0,0,0,0,0,0c0,0,0,0.1,0,0.1c0,0,0,0,0,0c0,0,0,0.1,0,0.1c0,0,0,0.1,0,0.1c0,0,0,0,0,0
			C28.8,6.7,28.8,6.7,28.8,6.8C28.8,6.7,28.8,6.7,28.8,6.8z"/>
	</g>
</g>
</svg>
